<svg xmlns="http://www.w3.org/2000/svg" width="512" height="512" viewBox="0 0 512 512">
  <defs>
    <linearGradient id="bg" gradientUnits="userSpaceOnUse" x1="81" y1="-47" x2="431" y2="559">
      <stop offset="0"    stop-color="#0E3A63"/>
      <stop offset="0.55" stop-color="#1B6FB3"/>
      <stop offset="1"    stop-color="#38A9D4"/>
    </linearGradient>
  </defs>

  <!-- Full-bleed square: no rounded clip, no rim. Google Play masks corners itself. -->
  <g transform="translate(256 256) scale(1.5) translate(-256 -256)">
    <path d="M0,0 L512,0 L512,512 L0,512 Z" fill="url(#bg)"/>
    <path d="M-154,517 a410,230 0 1,0 820,0 a410,230 0 1,0 -820,0 Z" fill="#FFFFFF" fill-opacity="0.08"/>
    <path d="M-154,579 a410,230 0 1,0 820,0 a410,230 0 1,0 -820,0 Z" fill="#FFFFFF" fill-opacity="0.07"/>
    <!-- glyph: 0.72 about center -->
    <g transform="translate(256 256) scale(0.72) translate(-256 -256)">
      <path d="M358.65 375.95L358.65 233.49Q358.65 212.99 354.45 200.06Q350.25 187.12 340.84 180.74Q331.43 174.35 315.98 174.35Q308.25 174.35 301.36 176.2Q294.47 178.05 289.1 180.9Q283.72 183.76 280.02 187.12L280.02 295.65L230.3 295.65L230.3 175.02Q228.28 175.02 226.43 175.02Q224.58 175.02 222.57 175.02Q195.35 175.02 179.9 184.6Q164.44 194.18 158.06 211.98Q151.67 229.79 151.67 255.33L151.67 295.65L101.94 295.65L101.94 253.98Q101.94 209.63 116.39 183.76Q130.84 157.89 157.72 146.97Q184.6 136.05 221.56 136.05L280.02 136.05L280.02 151.5Q286.41 146.46 298.84 141.26Q311.27 136.05 330.76 136.05Q351.59 136.05 366.21 141.76Q380.82 147.47 390.23 158.56Q399.64 169.65 404.01 185.27Q408.38 200.9 408.38 221.06L408.38 375.95Z" fill="#FFFFFF"/>
    </g>
  </g>
</svg>
